<svg enable-background="new 0 0 512 512" viewBox="0 0 512 512" xmlns="http://www.w3.org/2000/svg" xmlns:xlink="http://www.w3.org/1999/xlink"><linearGradient id="a"><stop offset="0" stop-color="#ffc06b"/><stop offset="1" stop-color="#e66900"/></linearGradient><linearGradient id="b" gradientUnits="userSpaceOnUse" x1="74.97635907" x2="437.01592332" xlink:href="#a" y1="74.97644599" y2="437.01569677"/><linearGradient id="c" gradientUnits="userSpaceOnUse" x1="103.42846362" x2="391.81041462" y1="253.1756773" y2="253.1756773"><stop offset="0" stop-color="#e1e1e3"/><stop offset=".263" stop-color="#dcdcdf"/><stop offset=".562" stop-color="#cfcfd2"/><stop offset=".878" stop-color="#b9b8bd"/><stop offset="1" stop-color="#aeadb3"/></linearGradient><linearGradient id="d" gradientUnits="userSpaceOnUse" x1="103.42846362" x2="391.81041462" y1="264.86403319" y2="264.86403319"><stop offset="0" stop-color="#fff"/><stop offset=".31" stop-color="#fcfcfc"/><stop offset=".573" stop-color="#f2f1f3"/><stop offset=".818" stop-color="#e1e0e3"/><stop offset="1" stop-color="#cfcdd3"/></linearGradient><linearGradient id="e" gradientUnits="userSpaceOnUse" x1="103.42846362" x2="391.81041462" y1="234.48753631" y2="234.48753631"><stop offset="0" stop-color="#00e8f2"/><stop offset="1" stop-color="#006ef5"/></linearGradient><linearGradient id="f" gradientUnits="userSpaceOnUse" x1="191.80380684" x2="480.18575784" xlink:href="#a" y1="4.57944319" y2="366.62684419"/><linearGradient id="g" gradientUnits="userSpaceOnUse" x1="169.98922056" x2="458.37117156" xlink:href="#a" y1="21.95550325" y2="384.00290425"/><linearGradient id="h" gradientUnits="userSpaceOnUse" x1="148.52122761" x2="436.90317861" xlink:href="#a" y1="39.05539624" y2="401.10269275"/><linearGradient id="i" gradientUnits="userSpaceOnUse" x1="76.62897291" x2="365.01092391" xlink:href="#a" y1="96.31988686" y2="458.36718337"/><linearGradient id="j" gradientUnits="userSpaceOnUse" x1="54.81438663" x2="343.19633763" xlink:href="#a" y1="113.69584243" y2="475.74313894"/><path d="m0 0h512v512h-512z" fill="url(#b)"/><path d="m423.9 412.7h-331.8c-10.5 0-19.1-8.9-19.1-19.9v-299.2h370v299.2c0 11-8.6 19.9-19.1 19.9z" fill="url(#c)"/><path d="m423.9 415.9h-331.8c-10.5 0-19.1-8.9-19.1-19.8v-282.3h370v282.2c0 11-8.6 19.9-19.1 19.9z" fill="url(#d)"/><path d="m129.1 176.3h111.8v116.4h-111.8z" fill="url(#e)"/><path d="m278.1 180.8h122.4v17.9h-122.4z" fill="url(#f)"/><path d="m278.1 225.5h122.4v17.9h-122.4z" fill="url(#g)"/><path d="m279.2 270.3h121.3v17.9h-121.3z" fill="url(#h)"/><path d="m115.5 315.1h285v17.9h-285z" fill="url(#i)"/><path d="m115.5 359.8h285v17.9h-285z" fill="url(#j)"/><path d="m219.5 237.1c-2.4-3.1-6-5.2-10.9-6.4 6.2-3.1 8.9-8.5 8.1-16-.2-2.7-1-5.1-2.3-7.1s-3-3.6-5.1-4.8-4.5-2.1-7-2.8c-2.5-.6-5.4-1.1-8.7-1.4v-15.6h-9.5v15.2c-1.7 0-4.2 0-7.6.1v-15.3h-9.5v15.6c-1.4 0-3.4.1-6 .1l-13.1-.1v10.2h6.9c3.1 0 5 1.4 5.5 4.2v17.8c.4 0 .7 0 1 .1h-1v24.9c-.3 2.1-1.5 3.2-3.6 3.2h-6.9l-1.9 11.3h12.4 3.4 3.3v15.8h9.5v-15.6c1.7 0 4.3.1 7.6.1v15.6h9.5v-15.8c3.4-.2 6.4-.5 9-.9 2.6-.5 5.1-1.2 7.5-2.1 2.4-1 4.4-2.2 6-3.6s2.9-3.3 4-5.5 1.7-4.8 2-7.8c.8-5.9-.2-10.3-2.6-13.4zm-42.7-27.6h2.4c1.3 0 2.5 0 3.3-.1.9 0 2.1 0 3.6.2 1.5.1 2.8.3 3.8.5s2.2.5 3.4 1 2.2 1.1 3 1.7c.7.7 1.4 1.6 1.9 2.6.5 1.1.8 2.3.8 3.6 0 1.2-.2 2.2-.6 3.2s-.9 1.7-1.7 2.4c-.7.6-1.5 1.2-2.3 1.7s-1.8.9-3 1.1c-1.2.3-2.3.5-3.2.7s-2 .3-3.4.3c-1.4.1-2.4.1-3.1.1s-1.7 0-2.9 0-1.9 0-2.1 0zm26.1 42.2c-.4 1-.9 1.8-1.5 2.5s-1.4 1.3-2.4 1.9c-1 .5-2 1-2.9 1.3-1 .3-2.1.6-3.4.9-1.3.2-2.5.4-3.5.5s-2.2.2-3.6.2c-1.4.1-2.5.1-3.3.1s-1.8 0-3 0-2 0-2.3 0v-21c.3 0 1.3 0 2.9-.1 1.6 0 3-.1 4-.1s2.5.1 4.3.2 3.3.3 4.6.6c1.2.2 2.6.6 4.1 1.1s2.7 1.1 3.6 1.9c.9.7 1.7 1.7 2.3 2.9s.9 2.5.9 4c-.2 1.1-.4 2.1-.8 3.1z"/></svg>